<mxfile host="app.diagrams.net" agent="Mozilla/5.0 (Windows NT 10.0; Win64; x64) AppleWebKit/537.36 (KHTML, like Gecko) Chrome/129.0.0.0 Safari/537.36" version="24.8.2">
  <diagram name="Page-1" id="FXxsTVjzgfu3hzY30l0A">
    <mxGraphModel dx="1259" dy="686" grid="1" gridSize="10" guides="1" tooltips="1" connect="1" arrows="1" fold="1" page="1" pageScale="1" pageWidth="850" pageHeight="1100" math="0" shadow="0">
      <root>
        <mxCell id="0" />
        <mxCell id="1" parent="0" />
        <mxCell id="BGa4wNoi77lTIvYWy0qd-29" value="" style="ellipse;whiteSpace=wrap;html=1;fillColor=#f8cecc;strokeColor=#b85450;" vertex="1" parent="1">
          <mxGeometry x="203.33" y="1200" width="340" height="270" as="geometry" />
        </mxCell>
        <mxCell id="BGa4wNoi77lTIvYWy0qd-1" value="" style="rounded=0;whiteSpace=wrap;html=1;fillColor=#f5f5f5;fontColor=#333333;strokeColor=#666666;" vertex="1" parent="1">
          <mxGeometry x="40" y="120" width="680" height="330" as="geometry" />
        </mxCell>
        <mxCell id="BGa4wNoi77lTIvYWy0qd-3" value="" style="aspect=fixed;sketch=0;html=1;dashed=0;whitespace=wrap;verticalLabelPosition=bottom;verticalAlign=top;fillColor=#2875E2;strokeColor=#ffffff;points=[[0.005,0.63,0],[0.1,0.2,0],[0.9,0.2,0],[0.5,0,0],[0.995,0.63,0],[0.72,0.99,0],[0.5,1,0],[0.28,0.99,0]];shape=mxgraph.kubernetes.icon2;prIcon=pod" vertex="1" parent="1">
          <mxGeometry x="600" y="170" width="83.33" height="80" as="geometry" />
        </mxCell>
        <mxCell id="BGa4wNoi77lTIvYWy0qd-9" style="edgeStyle=orthogonalEdgeStyle;rounded=0;orthogonalLoop=1;jettySize=auto;html=1;" edge="1" parent="1" source="BGa4wNoi77lTIvYWy0qd-4" target="BGa4wNoi77lTIvYWy0qd-3">
          <mxGeometry relative="1" as="geometry" />
        </mxCell>
        <mxCell id="BGa4wNoi77lTIvYWy0qd-4" value="&lt;b&gt;cluster IP&lt;/b&gt;" style="image;aspect=fixed;html=1;points=[];align=center;fontSize=12;image=img/lib/azure2/compute/Kubernetes_Services.svg;" vertex="1" parent="1">
          <mxGeometry x="430" y="180" width="68" height="60" as="geometry" />
        </mxCell>
        <mxCell id="BGa4wNoi77lTIvYWy0qd-8" style="edgeStyle=orthogonalEdgeStyle;rounded=0;orthogonalLoop=1;jettySize=auto;html=1;" edge="1" parent="1" source="BGa4wNoi77lTIvYWy0qd-5" target="BGa4wNoi77lTIvYWy0qd-4">
          <mxGeometry relative="1" as="geometry" />
        </mxCell>
        <mxCell id="BGa4wNoi77lTIvYWy0qd-5" value="" style="aspect=fixed;sketch=0;html=1;dashed=0;whitespace=wrap;verticalLabelPosition=bottom;verticalAlign=top;fillColor=#2875E2;strokeColor=#ffffff;points=[[0.005,0.63,0],[0.1,0.2,0],[0.9,0.2,0],[0.5,0,0],[0.995,0.63,0],[0.72,0.99,0],[0.5,1,0],[0.28,0.99,0]];shape=mxgraph.kubernetes.icon2;prIcon=pod" vertex="1" parent="1">
          <mxGeometry x="120" y="170" width="83.33" height="80" as="geometry" />
        </mxCell>
        <mxCell id="BGa4wNoi77lTIvYWy0qd-6" value="&lt;b&gt;annotations&lt;/b&gt;" style="text;html=1;align=center;verticalAlign=middle;resizable=0;points=[];autosize=1;strokeColor=none;fillColor=none;" vertex="1" parent="1">
          <mxGeometry x="116.66" y="260" width="90" height="30" as="geometry" />
        </mxCell>
        <mxCell id="BGa4wNoi77lTIvYWy0qd-7" value="&lt;b&gt;labels&lt;/b&gt;" style="text;html=1;align=center;verticalAlign=middle;resizable=0;points=[];autosize=1;strokeColor=none;fillColor=none;" vertex="1" parent="1">
          <mxGeometry x="620" y="260" width="60" height="30" as="geometry" />
        </mxCell>
        <mxCell id="BGa4wNoi77lTIvYWy0qd-10" value="&lt;b&gt;port&lt;/b&gt;" style="text;html=1;align=center;verticalAlign=middle;resizable=0;points=[];autosize=1;strokeColor=none;fillColor=none;" vertex="1" parent="1">
          <mxGeometry x="375" y="180" width="50" height="30" as="geometry" />
        </mxCell>
        <mxCell id="BGa4wNoi77lTIvYWy0qd-23" style="edgeStyle=orthogonalEdgeStyle;rounded=0;orthogonalLoop=1;jettySize=auto;html=1;entryX=0;entryY=0.5;entryDx=0;entryDy=0;" edge="1" parent="1" source="BGa4wNoi77lTIvYWy0qd-11" target="BGa4wNoi77lTIvYWy0qd-14">
          <mxGeometry relative="1" as="geometry" />
        </mxCell>
        <mxCell id="BGa4wNoi77lTIvYWy0qd-11" value="" style="rounded=0;whiteSpace=wrap;html=1;" vertex="1" parent="1">
          <mxGeometry x="480" y="580" width="222" height="110" as="geometry" />
        </mxCell>
        <mxCell id="BGa4wNoi77lTIvYWy0qd-24" style="edgeStyle=orthogonalEdgeStyle;rounded=0;orthogonalLoop=1;jettySize=auto;html=1;" edge="1" parent="1" source="BGa4wNoi77lTIvYWy0qd-12">
          <mxGeometry relative="1" as="geometry">
            <mxPoint x="880" y="850" as="targetPoint" />
          </mxGeometry>
        </mxCell>
        <mxCell id="BGa4wNoi77lTIvYWy0qd-12" value="" style="rounded=0;whiteSpace=wrap;html=1;" vertex="1" parent="1">
          <mxGeometry x="480" y="790" width="230" height="130" as="geometry" />
        </mxCell>
        <mxCell id="BGa4wNoi77lTIvYWy0qd-25" style="edgeStyle=orthogonalEdgeStyle;rounded=0;orthogonalLoop=1;jettySize=auto;html=1;" edge="1" parent="1" source="BGa4wNoi77lTIvYWy0qd-13">
          <mxGeometry relative="1" as="geometry">
            <mxPoint x="890" y="850" as="targetPoint" />
            <Array as="points">
              <mxPoint x="891" y="1070" />
            </Array>
          </mxGeometry>
        </mxCell>
        <mxCell id="BGa4wNoi77lTIvYWy0qd-13" value="" style="rounded=0;whiteSpace=wrap;html=1;" vertex="1" parent="1">
          <mxGeometry x="480" y="980" width="260" height="180" as="geometry" />
        </mxCell>
        <mxCell id="BGa4wNoi77lTIvYWy0qd-14" value="&lt;b&gt;nginx&lt;/b&gt;" style="ellipse;whiteSpace=wrap;html=1;fillColor=#dae8fc;strokeColor=#6c8ebf;" vertex="1" parent="1">
          <mxGeometry x="1070" y="790" width="120" height="120" as="geometry" />
        </mxCell>
        <mxCell id="BGa4wNoi77lTIvYWy0qd-15" value="&lt;b&gt;32274&lt;/b&gt;" style="rounded=0;whiteSpace=wrap;html=1;" vertex="1" parent="1">
          <mxGeometry x="430" y="610" width="90" height="50" as="geometry" />
        </mxCell>
        <mxCell id="BGa4wNoi77lTIvYWy0qd-17" style="edgeStyle=orthogonalEdgeStyle;rounded=0;orthogonalLoop=1;jettySize=auto;html=1;entryX=0;entryY=0.5;entryDx=0;entryDy=0;" edge="1" parent="1" source="BGa4wNoi77lTIvYWy0qd-16" target="BGa4wNoi77lTIvYWy0qd-15">
          <mxGeometry relative="1" as="geometry" />
        </mxCell>
        <mxCell id="BGa4wNoi77lTIvYWy0qd-21" style="edgeStyle=orthogonalEdgeStyle;rounded=0;orthogonalLoop=1;jettySize=auto;html=1;" edge="1" parent="1" source="BGa4wNoi77lTIvYWy0qd-16" target="BGa4wNoi77lTIvYWy0qd-19">
          <mxGeometry relative="1" as="geometry" />
        </mxCell>
        <mxCell id="BGa4wNoi77lTIvYWy0qd-22" style="edgeStyle=orthogonalEdgeStyle;rounded=0;orthogonalLoop=1;jettySize=auto;html=1;entryX=0;entryY=0.5;entryDx=0;entryDy=0;" edge="1" parent="1" source="BGa4wNoi77lTIvYWy0qd-16" target="BGa4wNoi77lTIvYWy0qd-20">
          <mxGeometry relative="1" as="geometry" />
        </mxCell>
        <mxCell id="BGa4wNoi77lTIvYWy0qd-16" value="" style="html=1;verticalLabelPosition=bottom;align=center;labelBackgroundColor=#ffffff;verticalAlign=top;strokeWidth=2;strokeColor=#0080F0;shadow=0;dashed=0;shape=mxgraph.ios7.icons.user;" vertex="1" parent="1">
          <mxGeometry x="120" y="815" width="60" height="70" as="geometry" />
        </mxCell>
        <mxCell id="BGa4wNoi77lTIvYWy0qd-19" value="&lt;b&gt;32274&lt;/b&gt;" style="rounded=0;whiteSpace=wrap;html=1;" vertex="1" parent="1">
          <mxGeometry x="425" y="825" width="90" height="50" as="geometry" />
        </mxCell>
        <mxCell id="BGa4wNoi77lTIvYWy0qd-20" value="&lt;b&gt;32274&lt;/b&gt;" style="rounded=0;whiteSpace=wrap;html=1;" vertex="1" parent="1">
          <mxGeometry x="425" y="1050" width="90" height="50" as="geometry" />
        </mxCell>
        <mxCell id="BGa4wNoi77lTIvYWy0qd-27" value="" style="ellipse;whiteSpace=wrap;html=1;fillColor=#d5e8d4;strokeColor=#82b366;" vertex="1" parent="1">
          <mxGeometry x="280" y="1240" width="240" height="190" as="geometry" />
        </mxCell>
        <mxCell id="BGa4wNoi77lTIvYWy0qd-26" value="&lt;b&gt;Cluster IP&lt;/b&gt;" style="ellipse;whiteSpace=wrap;html=1;fillColor=#dae8fc;strokeColor=#6c8ebf;" vertex="1" parent="1">
          <mxGeometry x="360" y="1300" width="120" height="80" as="geometry" />
        </mxCell>
        <mxCell id="BGa4wNoi77lTIvYWy0qd-28" value="&lt;b&gt;NodePort&lt;/b&gt;" style="text;html=1;align=center;verticalAlign=middle;resizable=0;points=[];autosize=1;strokeColor=none;fillColor=none;" vertex="1" parent="1">
          <mxGeometry x="340" y="1270" width="80" height="30" as="geometry" />
        </mxCell>
        <mxCell id="BGa4wNoi77lTIvYWy0qd-30" value="&lt;b&gt;Load Balancer&lt;/b&gt;" style="text;html=1;align=center;verticalAlign=middle;resizable=0;points=[];autosize=1;strokeColor=none;fillColor=none;" vertex="1" parent="1">
          <mxGeometry x="310" y="1200" width="110" height="30" as="geometry" />
        </mxCell>
        <mxCell id="BGa4wNoi77lTIvYWy0qd-36" style="edgeStyle=orthogonalEdgeStyle;rounded=0;orthogonalLoop=1;jettySize=auto;html=1;entryX=0;entryY=0.5;entryDx=0;entryDy=0;" edge="1" parent="1" source="BGa4wNoi77lTIvYWy0qd-31" target="BGa4wNoi77lTIvYWy0qd-33">
          <mxGeometry relative="1" as="geometry" />
        </mxCell>
        <mxCell id="BGa4wNoi77lTIvYWy0qd-37" style="edgeStyle=orthogonalEdgeStyle;rounded=0;orthogonalLoop=1;jettySize=auto;html=1;entryX=0;entryY=0.5;entryDx=0;entryDy=0;" edge="1" parent="1" source="BGa4wNoi77lTIvYWy0qd-31" target="BGa4wNoi77lTIvYWy0qd-34">
          <mxGeometry relative="1" as="geometry" />
        </mxCell>
        <mxCell id="BGa4wNoi77lTIvYWy0qd-38" style="edgeStyle=orthogonalEdgeStyle;rounded=0;orthogonalLoop=1;jettySize=auto;html=1;entryX=0;entryY=0.5;entryDx=0;entryDy=0;" edge="1" parent="1" source="BGa4wNoi77lTIvYWy0qd-31" target="BGa4wNoi77lTIvYWy0qd-35">
          <mxGeometry relative="1" as="geometry" />
        </mxCell>
        <mxCell id="BGa4wNoi77lTIvYWy0qd-31" value="" style="outlineConnect=0;dashed=0;verticalLabelPosition=bottom;verticalAlign=top;align=center;html=1;shape=mxgraph.aws3.application_load_balancer;fillColor=#F58534;gradientColor=none;" vertex="1" parent="1">
          <mxGeometry x="180" y="1610" width="69" height="72" as="geometry" />
        </mxCell>
        <mxCell id="BGa4wNoi77lTIvYWy0qd-39" style="edgeStyle=orthogonalEdgeStyle;rounded=0;orthogonalLoop=1;jettySize=auto;html=1;" edge="1" parent="1" source="BGa4wNoi77lTIvYWy0qd-32" target="BGa4wNoi77lTIvYWy0qd-31">
          <mxGeometry relative="1" as="geometry" />
        </mxCell>
        <mxCell id="BGa4wNoi77lTIvYWy0qd-32" value="" style="html=1;verticalLabelPosition=bottom;align=center;labelBackgroundColor=#ffffff;verticalAlign=top;strokeWidth=2;strokeColor=#0080F0;shadow=0;dashed=0;shape=mxgraph.ios7.icons.user;" vertex="1" parent="1">
          <mxGeometry x="10" y="1616" width="50" height="60" as="geometry" />
        </mxCell>
        <mxCell id="BGa4wNoi77lTIvYWy0qd-43" style="edgeStyle=orthogonalEdgeStyle;rounded=0;orthogonalLoop=1;jettySize=auto;html=1;entryX=0;entryY=0.5;entryDx=0;entryDy=0;" edge="1" parent="1" source="BGa4wNoi77lTIvYWy0qd-33" target="BGa4wNoi77lTIvYWy0qd-42">
          <mxGeometry relative="1" as="geometry" />
        </mxCell>
        <mxCell id="BGa4wNoi77lTIvYWy0qd-33" value="&lt;b&gt;NODE-1&lt;/b&gt;" style="rounded=1;whiteSpace=wrap;html=1;" vertex="1" parent="1">
          <mxGeometry x="420" y="1510" width="120" height="60" as="geometry" />
        </mxCell>
        <mxCell id="BGa4wNoi77lTIvYWy0qd-44" style="edgeStyle=orthogonalEdgeStyle;rounded=0;orthogonalLoop=1;jettySize=auto;html=1;" edge="1" parent="1" source="BGa4wNoi77lTIvYWy0qd-34">
          <mxGeometry relative="1" as="geometry">
            <mxPoint x="630" y="1646" as="targetPoint" />
          </mxGeometry>
        </mxCell>
        <mxCell id="BGa4wNoi77lTIvYWy0qd-34" value="" style="rounded=1;whiteSpace=wrap;html=1;" vertex="1" parent="1">
          <mxGeometry x="420" y="1616" width="120" height="60" as="geometry" />
        </mxCell>
        <mxCell id="BGa4wNoi77lTIvYWy0qd-45" style="edgeStyle=orthogonalEdgeStyle;rounded=0;orthogonalLoop=1;jettySize=auto;html=1;entryX=0;entryY=0.5;entryDx=0;entryDy=0;" edge="1" parent="1" source="BGa4wNoi77lTIvYWy0qd-35" target="BGa4wNoi77lTIvYWy0qd-42">
          <mxGeometry relative="1" as="geometry" />
        </mxCell>
        <mxCell id="BGa4wNoi77lTIvYWy0qd-35" value="" style="rounded=1;whiteSpace=wrap;html=1;" vertex="1" parent="1">
          <mxGeometry x="420" y="1730" width="120" height="60" as="geometry" />
        </mxCell>
        <mxCell id="BGa4wNoi77lTIvYWy0qd-40" value="&lt;b&gt;31857&lt;/b&gt;" style="text;html=1;align=center;verticalAlign=middle;resizable=0;points=[];autosize=1;strokeColor=none;fillColor=none;" vertex="1" parent="1">
          <mxGeometry x="260" y="1616" width="60" height="30" as="geometry" />
        </mxCell>
        <mxCell id="BGa4wNoi77lTIvYWy0qd-41" value="&lt;b&gt;Pod&lt;/b&gt;" style="ellipse;whiteSpace=wrap;html=1;fillColor=#e1d5e7;strokeColor=#9673a6;" vertex="1" parent="1">
          <mxGeometry x="830" y="1606" width="120" height="80" as="geometry" />
        </mxCell>
        <mxCell id="BGa4wNoi77lTIvYWy0qd-46" style="edgeStyle=orthogonalEdgeStyle;rounded=0;orthogonalLoop=1;jettySize=auto;html=1;entryX=0;entryY=0.5;entryDx=0;entryDy=0;" edge="1" parent="1" source="BGa4wNoi77lTIvYWy0qd-42" target="BGa4wNoi77lTIvYWy0qd-41">
          <mxGeometry relative="1" as="geometry" />
        </mxCell>
        <mxCell id="BGa4wNoi77lTIvYWy0qd-42" value="&lt;b&gt;Cluster IP&lt;/b&gt;" style="ellipse;whiteSpace=wrap;html=1;fillColor=#dae8fc;strokeColor=#6c8ebf;" vertex="1" parent="1">
          <mxGeometry x="650" y="1606" width="120" height="80" as="geometry" />
        </mxCell>
        <mxCell id="BGa4wNoi77lTIvYWy0qd-47" value="&lt;b&gt;LB&lt;/b&gt;" style="text;html=1;align=center;verticalAlign=middle;resizable=0;points=[];autosize=1;strokeColor=none;fillColor=none;" vertex="1" parent="1">
          <mxGeometry x="194.5" y="1686" width="40" height="30" as="geometry" />
        </mxCell>
        <mxCell id="BGa4wNoi77lTIvYWy0qd-48" value="&lt;b&gt;Cluster IP&lt;/b&gt;" style="ellipse;whiteSpace=wrap;html=1;" vertex="1" parent="1">
          <mxGeometry x="920" y="825" width="80" height="50" as="geometry" />
        </mxCell>
        <mxCell id="BGa4wNoi77lTIvYWy0qd-49" value="&lt;b&gt;service-name&lt;/b&gt;" style="text;html=1;align=center;verticalAlign=middle;resizable=0;points=[];autosize=1;strokeColor=none;fillColor=none;" vertex="1" parent="1">
          <mxGeometry x="910" y="795" width="100" height="30" as="geometry" />
        </mxCell>
      </root>
    </mxGraphModel>
  </diagram>
</mxfile>
